Coordinates
version=1
nRows=12
nColumns=24
inDegrees=yes

Units are S.I. units (second, meters, Newtons, ...)
Angles are in degrees.

endheader
time	pelvis_tilt	pelvis_list	pelvis_rotation	pelvis_tx	pelvis_ty	pelvis_tz	hip_flexion_r	hip_adduction_r	hip_rotation_r	knee_angle_r	ankle_angle_r	subtalar_angle_r	mtp_angle_r	hip_flexion_l	hip_adduction_l	hip_rotation_l	knee_angle_l	ankle_angle_l	subtalar_angle_l	mtp_angle_l	lumbar_extension	lumbar_bending	lumbar_rotation
      2.01500000	     -5.27434036	      2.81307795	    358.07150097	     -0.21278768	      1.39055804	     -1.06044632	     26.24763682	     -1.72390481	      3.09692315	    -23.38783576	      0.20702670	     -8.28859916	     11.71070185	      3.29277666	      7.01998011	      4.21359117	     -8.79123140	      3.74508880	     -4.75814553	      9.61198225	    -10.49217370	      2.08892580	      3.06862611
      2.02000000	     -5.26569710	      2.89421034	    358.06579085	     -0.20791423	      1.39001673	     -1.06025172	     26.12258709	     -1.79928901	      3.33807051	    -21.66247961	     -0.43470291	     -8.70352411	     11.24658084	      2.90437920	      7.11520594	      4.30754219	     -8.66463678	      3.91703313	     -4.81494682	      9.33263308	    -10.48669804	      1.97756949	      3.05316832
      2.02500000	     -5.31256750	      2.93900719	    358.09232742	     -0.20311305	      1.38936721	     -1.06029451	     26.05748248	     -1.89725168	      3.50372291	    -19.95518969	     -1.01244101	     -8.89433208	     10.92361988	      2.61297438	      7.18444424	      4.41582804	     -8.59676033	      4.16053063	     -4.85804836	      9.13858260	    -10.42063947	      1.93591240	      3.02217265
      2.03000000	     -5.29628109	      2.99659783	    358.06028618	     -0.19803022	      1.38878613	     -1.06010250	     25.86063052	     -1.94846397	      3.76967649	    -18.15653663	     -1.57220629	     -9.36381350	     10.60471227	      2.17143464	      7.24816897	      4.40148295	     -8.40743626	      4.36865673	     -4.77761339	      8.97655701	    -10.39200938	      1.86771176	      3.09174127
      2.03500000	     -5.31696121	      3.13051491	    358.08572935	     -0.19315100	      1.38809881	     -1.06002784	     25.73625151	     -2.12871935	      3.92307357	    -16.40149285	     -2.16694077	     -9.54647907	     10.35858401	      1.83531459	      7.40888869	      4.53135671	     -8.31635920	      4.52600620	     -4.88724100	      8.81260402	    -10.34382496	      1.71906515	      3.06969280
      2.04000000	     -5.36309225	      3.23964908	    358.21506069	     -0.18831827	      1.38734393	     -1.06003906	     25.60631637	     -2.33685513	      4.00464289	    -14.62701202	     -2.79985967	     -9.69017009	     10.16353108	      1.56526464	      7.55002360	      4.80994995	     -8.29671715	      4.71395666	     -5.03278802	      8.68194470	    -10.27120036	      1.60418168	      2.95586493
      2.04500000	     -5.41427184	      3.31289732	    358.35631753	     -0.18364073	      1.38662213	     -1.06004405	     25.45017048	     -2.51446106	      4.11591042	    -12.80661860	     -3.50459093	     -9.84858517	      9.96186336	      1.30874910	      7.65034111	      5.10492106	     -8.27981814	      4.88976159	     -5.18754637	      8.54193326	    -10.25386511	      1.52718559	      2.78603448
      2.05000000	     -5.50559737	      3.45179608	    358.54339464	     -0.17913228	      1.38573458	     -1.06007385	     25.37397704	     -2.78420814	      4.17189945	    -11.06480625	     -4.13583036	     -9.90723367	      9.92520439	      1.15739724	      7.82416209	      5.43364402	     -8.36408229	      5.10416943	     -5.31122030	      8.37719185	    -10.20018770	      1.38064284	      2.64925938
      2.05500000	     -5.67138098	      3.60127650	    358.95067973	     -0.17493044	      1.38474003	     -1.06012191	     25.34805528	     -3.14191324	      4.04671412	     -9.31989218	     -4.75631799	     -9.98754581	      9.82670475	      1.13700668	      8.00693996	      5.98577194	     -8.52152411	      5.33946426	     -5.42726237	      8.29340568	    -10.09961897	      1.20893834	      2.29317816
      2.06000000	     -5.78103084	      3.75838859	    359.23975436	     -0.17051858	      1.38377927	     -1.06015379	     25.24638515	     -3.47747906	      4.02596421	     -7.56774840	     -5.41118512	    -10.05951449	     10.25488146	      1.02453027	      8.20649041	      6.47947599	     -8.66033044	      5.56304998	     -5.65123250	      7.84626154	    -10.05689585	      1.05265218	      1.99699669
      2.06500000	     -5.89691764	      3.92986822	    359.39667186	     -0.16560013	      1.38282249	     -1.06009378	     25.12454550	     -3.76095495	      4.16514881	     -5.84622866	     -5.89112168	    -10.05569400	     10.20344647	      0.81694536	      8.40274082	      6.78186558	     -8.62833993	      5.71089733	     -5.81107868	      7.79388062	     -9.94022114	      0.89425466	      1.83092264
      2.07000000	     -5.92938216	      4.04992322	    359.46710535	     -0.16045425	      1.38196094	     -1.06006944	     24.86437982	     -3.97105687	      4.34062129	     -4.10477655	     -6.28373771	     -9.95861760	     10.29845910	      0.48127012	      8.54645201	      6.97165523	     -8.55043939	      5.84115312	     -6.01703305	      7.68569814	     -9.85936652	      0.80883508	      1.80731027
